<?xml version="1.0" encoding="UTF-8"?>
<!DOCTYPE svg PUBLIC "-//W3C//DTD SVG 1.1//EN" "http://www.w3.org/Graphics/SVG/1.1/DTD/svg11.dtd">
<svg xmlns="http://www.w3.org/2000/svg" version="1.1" width="138px" height="165px" style="shape-rendering:geometricPrecision; text-rendering:geometricPrecision; image-rendering:optimizeQuality; fill-rule:evenodd; clip-rule:evenodd" xmlns:xlink="http://www.w3.org/1999/xlink">
<g><path style="opacity:0.98" fill="#faa84b" d="M 66.5,3.5 C 69.8347,4.46079 71.5014,6.79413 71.5,10.5C 82.1492,9.79068 83.1492,12.4573 74.5,18.5C 77.5607,27.3943 75.3941,28.7277 68,22.5C 60.6059,28.7277 58.4393,27.3943 61.5,18.5C 53.2618,12.9532 54.2618,10.2865 64.5,10.5C 64.8782,8.07905 65.5448,5.74571 66.5,3.5 Z"/></g>
<g><path style="opacity:0.963" fill="#faa84b" d="M 37.5,19.5 C 40.1094,19.8301 41.7761,21.3301 42.5,24C 48.8855,23.987 49.7188,25.8203 45,29.5C 46.5907,36.5881 44.5907,37.9214 39,33.5C 37.5114,35.3318 35.678,36.1652 33.5,36C 33.3744,34.0257 33.2078,31.859 33,29.5C 31.117,28.3474 30.2837,26.6807 30.5,24.5C 32.5,24.5 34.5,24.5 36.5,24.5C 36.6287,22.7839 36.962,21.1172 37.5,19.5 Z"/></g>
<g><path style="opacity:0.954" fill="#faa84b" d="M 96.5,19.5 C 99.4701,19.7458 100.803,21.4124 100.5,24.5C 102.5,24.5 104.5,24.5 106.5,24.5C 105.977,27.0277 104.977,29.361 103.5,31.5C 104.272,37.3549 102.438,38.0216 98,33.5C 92.4093,37.9214 90.4093,36.5881 92,29.5C 90.117,28.3474 89.2837,26.6807 89.5,24.5C 91.5,24.5 93.5,24.5 95.5,24.5C 95.6287,22.7839 95.962,21.1172 96.5,19.5 Z"/></g>
<g><path style="opacity:0.813" fill="#00b27d" d="M 65.5,31.5 C 67.8568,31.3367 70.1902,31.5034 72.5,32C 88.3276,40.4129 103.994,49.0796 119.5,58C 124.212,61.462 126.212,66.1286 125.5,72C 123.036,108.961 105.703,136.294 73.5,154C 68.8887,155.007 64.5554,154.34 60.5,152C 27.4671,131.769 11.9671,102.269 14,63.5C 15.1217,61.3762 16.6217,59.5429 18.5,58C 34.2291,49.1392 49.8958,40.3059 65.5,31.5 Z M 66.5,35.5 C 69.2706,35.4207 71.9373,35.9207 74.5,37C 89.1667,45.3333 103.833,53.6667 118.5,62C 120.909,65.2511 121.909,68.9177 121.5,73C 119.277,105.796 104.277,130.796 76.5,148C 71.5,151.333 66.5,151.333 61.5,148C 31.6669,129.177 16.8336,102.01 17,66.5C 18.1217,64.3762 19.6217,62.5429 21.5,61C 36.5625,52.4727 51.5625,43.9727 66.5,35.5 Z M 66.5,43.5 C 68.1992,43.3398 69.8659,43.5065 71.5,44C 84.1667,51 96.8333,58 109.5,65C 112.616,67.4 113.949,70.5666 113.5,74.5C 111.372,103.749 97.7055,125.583 72.5,140C 70.1667,140.667 67.8333,140.667 65.5,140C 40.1296,124.942 26.463,102.609 24.5,73C 24.7305,70.3002 25.7305,67.9668 27.5,66C 40.8896,58.9784 53.8896,51.4784 66.5,43.5 Z M 66.5,66.5 C 68.1439,66.2865 69.6439,66.6198 71,67.5C 80.4365,78.4508 81.9365,90.4508 75.5,103.5C 70.8333,104.833 66.1667,104.833 61.5,103.5C 54.8956,89.9831 56.5623,77.6498 66.5,66.5 Z M 51.5,93.5 C 53.3863,97.6241 55.3863,101.791 57.5,106C 55.3911,107.141 53.5578,108.641 52,110.5C 51.0086,106.868 50.1752,103.201 49.5,99.5C 49.6113,97.2857 50.278,95.2857 51.5,93.5 Z M 84.5,93.5 C 86.3332,95.0221 87.3332,97.0221 87.5,99.5C 86.8248,103.201 85.9914,106.868 85,110.5C 83.4422,108.641 81.6089,107.141 79.5,106C 81.858,102.089 83.5247,97.9223 84.5,93.5 Z"/></g>
<g><path style="opacity:0.935" fill="#faa84b" d="M 66.5,39.5 C 69.2706,39.4207 71.9373,39.9207 74.5,41C 87.662,48.0801 100.662,55.4134 113.5,63C 116.369,65.9056 117.702,69.4056 117.5,73.5C 115.371,104.943 100.705,128.443 73.5,144C 70.8333,144.667 68.1667,144.667 65.5,144C 34.8453,127.321 20.3453,101.488 22,66.5C 22.956,65.4214 23.7894,64.2547 24.5,63C 38.4327,54.8714 52.4327,47.0381 66.5,39.5 Z M 66.5,43.5 C 53.8896,51.4784 40.8896,58.9784 27.5,66C 25.7305,67.9668 24.7305,70.3002 24.5,73C 26.463,102.609 40.1296,124.942 65.5,140C 67.8333,140.667 70.1667,140.667 72.5,140C 97.7055,125.583 111.372,103.749 113.5,74.5C 113.949,70.5666 112.616,67.4 109.5,65C 96.8333,58 84.1667,51 71.5,44C 69.8659,43.5065 68.1992,43.3398 66.5,43.5 Z M 66.5,66.5 C 56.5623,77.6498 54.8956,89.9831 61.5,103.5C 66.1667,104.833 70.8333,104.833 75.5,103.5C 81.9365,90.4508 80.4365,78.4508 71,67.5C 69.6439,66.6198 68.1439,66.2865 66.5,66.5 Z M 51.5,93.5 C 50.278,95.2857 49.6113,97.2857 49.5,99.5C 50.1752,103.201 51.0086,106.868 52,110.5C 53.5578,108.641 55.3911,107.141 57.5,106C 55.3863,101.791 53.3863,97.6241 51.5,93.5 Z M 84.5,93.5 C 83.5247,97.9223 81.858,102.089 79.5,106C 81.6089,107.141 83.4422,108.641 85,110.5C 85.9914,106.868 86.8248,103.201 87.5,99.5C 87.3332,97.0221 86.3332,95.0221 84.5,93.5 Z"/></g>
<g><path style="opacity:0.87" fill="#00b27d" d="M 66.5,60.5 C 68.6547,60.372 70.6547,60.872 72.5,62C 79.4888,69.1424 83.9888,77.6424 86,87.5C 89.23,90.2967 91.73,93.63 93.5,97.5C 92.1461,103.445 90.4795,109.278 88.5,115C 86.5,115.667 84.5,115.667 82.5,115C 79.0572,110.151 74.3905,108.317 68.5,109.5C 65.8333,109.667 63.1667,109.833 60.5,110C 58.5,111.667 56.5,113.333 54.5,115C 52.2305,115.758 50.0639,115.591 48,114.5C 46.4357,108.843 44.9357,103.176 43.5,97.5C 45.27,93.63 47.77,90.2967 51,87.5C 53.1127,76.5912 58.2794,67.5912 66.5,60.5 Z M 66.5,66.5 C 56.5623,77.6498 54.8956,89.9831 61.5,103.5C 66.1667,104.833 70.8333,104.833 75.5,103.5C 81.9365,90.4508 80.4365,78.4508 71,67.5C 69.6439,66.6198 68.1439,66.2865 66.5,66.5 Z M 51.5,93.5 C 50.278,95.2857 49.6113,97.2857 49.5,99.5C 50.1752,103.201 51.0086,106.868 52,110.5C 53.5578,108.641 55.3911,107.141 57.5,106C 55.3863,101.791 53.3863,97.6241 51.5,93.5 Z M 84.5,93.5 C 83.5247,97.9223 81.858,102.089 79.5,106C 81.6089,107.141 83.4422,108.641 85,110.5C 85.9914,106.868 86.8248,103.201 87.5,99.5C 87.3332,97.0221 86.3332,95.0221 84.5,93.5 Z"/></g>
<g><path style="opacity:0.916" fill="#faa84b" d="M 66.5,79.5 C 71.2411,79.1614 72.5744,81.1614 70.5,85.5C 67.8489,86.8416 66.1823,86.0083 65.5,83C 65.6483,81.7441 65.9816,80.5774 66.5,79.5 Z"/></g>
<g><path style="opacity:0.885" fill="#faa84b" d="M 62.5,112.5 C 66.5546,112.176 70.5546,112.509 74.5,113.5C 75.8333,114.5 75.8333,115.5 74.5,116.5C 70.878,117.659 67.2113,117.825 63.5,117C 62.8333,116.333 62.1667,115.667 61.5,115C 62.2524,114.329 62.5858,113.496 62.5,112.5 Z"/></g>
</svg>
