<?xml version="1.0" encoding="UTF-8"?>
<!DOCTYPE svg PUBLIC "-//W3C//DTD SVG 1.1//EN" "http://www.w3.org/Graphics/SVG/1.1/DTD/svg11.dtd">
<svg xmlns="http://www.w3.org/2000/svg" version="1.1" width="92px" height="110px" style="shape-rendering:geometricPrecision; text-rendering:geometricPrecision; image-rendering:optimizeQuality; fill-rule:evenodd; clip-rule:evenodd" xmlns:xlink="http://www.w3.org/1999/xlink">
<g><path style="opacity:0.967" fill="#faa84b" d="M 43.5,2.5 C 46.5047,4.91364 49.838,6.91364 53.5,8.5C 52.3947,9.89238 51.0614,11.059 49.5,12C 50.7596,13.8138 50.7596,15.6471 49.5,17.5C 48.0589,16.696 46.5589,16.0294 45,15.5C 43.4329,16.8561 41.5996,17.5228 39.5,17.5C 41.43,13.4549 40.43,10.2883 36.5,8C 38.2852,6.83716 40.2852,6.17049 42.5,6C 43.3366,4.98873 43.67,3.82207 43.5,2.5 Z"/></g>
<g><path style="opacity:0.947" fill="#faa84b" d="M 24.5,12.5 C 26.7455,14.5411 29.4121,16.0411 32.5,17C 29.7902,18.4598 29.1235,20.4598 30.5,23C 29.0929,24.452 27.5929,24.2853 26,22.5C 22.663,25.3202 21.4964,24.6535 22.5,20.5C 21.7366,19.2807 20.7366,18.2807 19.5,17.5C 20.7357,16.6433 22.069,15.9766 23.5,15.5C 24.3857,14.675 24.719,13.675 24.5,12.5 Z"/></g>
<g><path style="opacity:0.959" fill="#faa84b" d="M 64.5,12.5 C 66.5008,14.4807 68.8341,16.1474 71.5,17.5C 70.7366,18.7193 69.7366,19.7193 68.5,20.5C 69.7956,24.9428 68.6289,25.6095 65,22.5C 61.9653,25.2317 60.7987,24.7317 61.5,21C 61.0496,19.7147 60.3829,18.548 59.5,17.5C 61.8552,16.4782 63.5218,14.8116 64.5,12.5 Z"/></g>
<g><path style="opacity:0.751" fill="#00b27d" d="M 43.5,20.5 C 45.1992,20.3398 46.8659,20.5065 48.5,21C 59.1667,27 69.8333,33 80.5,39C 82.961,41.827 83.961,45.1604 83.5,49C 81.5244,74.6066 69.0244,92.7733 46,103.5C 20.1727,91.5359 7.8394,71.2026 9,42.5C 9.78451,40.714 10.9512,39.214 12.5,38C 23.0006,32.303 33.3339,26.4696 43.5,20.5 Z M 44.5,23.5 C 48.3621,24.4281 52.0288,25.9281 55.5,28C 63.0045,32.5865 70.6712,36.9199 78.5,41C 80.0138,43.5871 80.6804,46.4205 80.5,49.5C 78.4427,72.9638 66.9427,89.9638 46,100.5C 22.314,88.4676 10.9806,69.1343 12,42.5C 22.6501,35.7617 33.4834,29.4283 44.5,23.5 Z M 43.5,29.5 C 45.1992,29.3398 46.8659,29.5065 48.5,30C 57.2438,34.4538 65.7438,39.2871 74,44.5C 75.8686,67.4276 66.3686,83.7609 45.5,93.5C 26.0218,83.5594 16.5218,67.5594 17,45.5C 25.6478,39.7638 34.4811,34.4305 43.5,29.5 Z M 44.5,44.5 C 50.0241,47.3946 52.6907,52.0613 52.5,58.5C 52.5886,62.0668 51.7553,65.4001 50,68.5C 47,69.8333 44,69.8333 41,68.5C 36.8502,59.6285 38.0168,51.6285 44.5,44.5 Z M 55.5,62.5 C 56.8118,63.1451 57.8118,64.1451 58.5,65.5C 57.9752,67.9879 57.1419,70.3213 56,72.5C 54.8419,72.0019 54.0085,71.1685 53.5,70C 54.8713,67.6813 55.5379,65.1813 55.5,62.5 Z M 33.5,63.5 C 35.5549,65.2339 36.8882,67.5672 37.5,70.5C 36.7579,71.2868 35.9246,71.9535 35,72.5C 33.3286,69.5331 32.8286,66.5331 33.5,63.5 Z"/></g>
<g><path style="opacity:0.897" fill="#faa84b" d="M 42.5,26.5 C 44.8568,26.3367 47.1902,26.5034 49.5,27C 58.9153,32.1227 68.0819,37.6227 77,43.5C 78.8349,62.0222 72.6683,77.5222 58.5,90C 54.793,93.0379 50.6263,95.2045 46,96.5C 25.8117,87.5006 14.9784,71.8339 13.5,49.5C 13.383,46.403 14.383,43.7363 16.5,41.5C 25.2295,36.4731 33.8961,31.4731 42.5,26.5 Z M 43.5,29.5 C 34.4811,34.4305 25.6478,39.7638 17,45.5C 16.5218,67.5594 26.0218,83.5594 45.5,93.5C 66.3686,83.7609 75.8686,67.4276 74,44.5C 65.7438,39.2871 57.2438,34.4538 48.5,30C 46.8659,29.5065 45.1992,29.3398 43.5,29.5 Z M 44.5,44.5 C 38.0168,51.6285 36.8502,59.6285 41,68.5C 44,69.8333 47,69.8333 50,68.5C 51.7553,65.4001 52.5886,62.0668 52.5,58.5C 52.6907,52.0613 50.0241,47.3946 44.5,44.5 Z M 55.5,62.5 C 55.5379,65.1813 54.8713,67.6813 53.5,70C 54.0085,71.1685 54.8419,72.0019 56,72.5C 57.1419,70.3213 57.9752,67.9879 58.5,65.5C 57.8118,64.1451 56.8118,63.1451 55.5,62.5 Z M 33.5,63.5 C 32.8286,66.5331 33.3286,69.5331 35,72.5C 35.9246,71.9535 36.7579,71.2868 37.5,70.5C 36.8882,67.5672 35.5549,65.2339 33.5,63.5 Z"/></g>
<g><path style="opacity:0.82" fill="#00b27d" d="M 43.5,40.5 C 45.9363,40.317 48.103,40.9837 50,42.5C 53.6726,46.8467 56.0059,51.8467 57,57.5C 59.3157,59.4704 61.1491,61.8037 62.5,64.5C 61.477,68.8002 60.1437,72.9668 58.5,77C 55.4256,76.7968 52.7589,75.4634 50.5,73C 47.1667,72.3333 43.8333,72.3333 40.5,73C 38.6789,74.7433 36.6789,76.2433 34.5,77.5C 32.8662,77.032 31.6995,76.032 31,74.5C 30.5426,71.204 29.7093,68.0373 28.5,65C 29.7226,62.056 31.5559,59.556 34,57.5C 35.1368,50.5465 38.3034,44.8798 43.5,40.5 Z M 44.5,44.5 C 38.0168,51.6285 36.8502,59.6285 41,68.5C 44,69.8333 47,69.8333 50,68.5C 51.7553,65.4001 52.5886,62.0668 52.5,58.5C 52.6907,52.0613 50.0241,47.3946 44.5,44.5 Z M 55.5,62.5 C 55.5379,65.1813 54.8713,67.6813 53.5,70C 54.0085,71.1685 54.8419,72.0019 56,72.5C 57.1419,70.3213 57.9752,67.9879 58.5,65.5C 57.8118,64.1451 56.8118,63.1451 55.5,62.5 Z M 33.5,63.5 C 32.8286,66.5331 33.3286,69.5331 35,72.5C 35.9246,71.9535 36.7579,71.2868 37.5,70.5C 36.8882,67.5672 35.5549,65.2339 33.5,63.5 Z"/></g>
<g><path style="opacity:0.843" fill="#fba84b" d="M 43.5,52.5 C 44.8333,52.5 46.1667,52.5 47.5,52.5C 47.8841,54.6648 47.2174,56.3315 45.5,57.5C 43.7826,56.3315 43.1159,54.6648 43.5,52.5 Z"/></g>
<g><path style="opacity:0.973" fill="#faa74a" d="M 41.5,74.5 C 44.1667,74.5 46.8333,74.5 49.5,74.5C 49.5,75.8333 49.5,77.1667 49.5,78.5C 46.8333,78.5 44.1667,78.5 41.5,78.5C 41.5,77.1667 41.5,75.8333 41.5,74.5 Z"/></g>
</svg>
