<?xml version="1.0" encoding="UTF-8"?>
<!DOCTYPE svg PUBLIC "-//W3C//DTD SVG 1.1//EN" "http://www.w3.org/Graphics/SVG/1.1/DTD/svg11.dtd">
<svg xmlns="http://www.w3.org/2000/svg" version="1.1" width="46px" height="55px" style="shape-rendering:geometricPrecision; text-rendering:geometricPrecision; image-rendering:optimizeQuality; fill-rule:evenodd; clip-rule:evenodd" xmlns:xlink="http://www.w3.org/1999/xlink">
<g><path style="opacity:0.943" fill="#faa84b" d="M 21.5,0.5 C 23.2128,1.30499 24.8794,2.30499 26.5,3.5C 24.8624,4.70458 24.5291,6.03791 25.5,7.5C 23.784,7.99723 22.1173,8.33056 20.5,8.5C 19.2319,6.69565 18.5652,4.69565 18.5,2.5C 20.1788,2.71481 21.1788,2.04814 21.5,0.5 Z"/></g>
<g><path style="opacity:0.911" fill="#faa74a" d="M 12.5,5.5 C 13.452,6.45196 14.452,7.45196 15.5,8.5C 15.4669,9.98902 14.9669,11.3224 14,12.5C 13,11.1667 12,11.1667 11,12.5C 10.5983,11.1279 10.0983,9.79457 9.5,8.5C 10.7701,7.71237 11.7701,6.71237 12.5,5.5 Z"/></g>
<g><path style="opacity:0.92" fill="#fba749" d="M 31.5,5.5 C 35.5434,6.70482 36.3768,9.03816 34,12.5C 33,11.1667 32,11.1667 31,12.5C 30.5983,11.1279 30.0983,9.79457 29.5,8.5C 30.6119,7.73485 31.2786,6.73485 31.5,5.5 Z"/></g>
<g><path style="opacity:0.59" fill="#00b17c" d="M 21.5,9.5 C 28.0901,12.1284 34.4235,15.2951 40.5,19C 42.4203,33.992 36.5869,44.8254 23,51.5C 9.3185,45.7915 2.98516,35.4582 4,20.5C 9.81337,16.6835 15.6467,13.0168 21.5,9.5 Z M 21.5,14.5 C 26.7146,16.4406 31.7146,18.9406 36.5,22C 37.1889,33.1122 32.5222,41.2789 22.5,46.5C 12.0013,40.6863 8.00126,32.1863 10.5,21C 14.5599,19.3109 18.2266,17.1442 21.5,14.5 Z M 27.5,31.5 C 28.782,32.7082 28.782,34.0416 27.5,35.5C 27.0941,34.4425 27.0941,33.1092 27.5,31.5 Z M 16.5,31.5 C 17.2485,32.531 17.9152,33.6976 18.5,35C 18.1667,35.1667 17.8333,35.3333 17.5,35.5C 16.5713,34.3112 16.238,32.9778 16.5,31.5 Z M 21.5,22.5 C 24.5856,23.6544 25.919,25.9877 25.5,29.5C 25.97,34.1604 24.1367,35.4937 20,33.5C 19.1122,29.5979 19.6122,25.9312 21.5,22.5 Z M 19.5,47.5 C 21.1172,48.038 22.7839,48.3713 24.5,48.5C 22.5453,49.9302 20.8786,49.5969 19.5,47.5 Z"/></g>
<g><path style="opacity:0.875" fill="#faa74a" d="M 24.5,12.5 C 24.8417,13.3382 25.5084,13.6716 26.5,13.5C 26.8417,14.3382 27.5084,14.6716 28.5,14.5C 28.5,15.1667 28.8333,15.5 29.5,15.5C 29.8417,16.3382 30.5084,16.6716 31.5,16.5C 31.8417,17.3382 32.5084,17.6716 33.5,17.5C 33.8417,18.3382 34.5084,18.6716 35.5,18.5C 36.2905,19.4013 37.2905,20.0679 38.5,20.5C 38.3284,21.4916 38.6618,22.1583 39.5,22.5C 39.5,23.5 39.5,24.5 39.5,25.5C 38.5386,27.2646 38.2053,29.2646 38.5,31.5C 37.596,32.209 37.2627,33.209 37.5,34.5C 36.6618,34.8417 36.3284,35.5084 36.5,36.5C 35.6618,36.8417 35.3284,37.5084 35.5,38.5C 34.8333,38.5 34.5,38.8333 34.5,39.5C 33.8333,39.5 33.5,39.8333 33.5,40.5C 32.5987,41.2905 31.9321,42.2905 31.5,43.5C 30.8333,43.5 30.5,43.8333 30.5,44.5C 29.5084,44.3284 28.8417,44.6618 28.5,45.5C 27.8333,45.5 27.5,45.8333 27.5,46.5C 26.8333,46.5 26.5,46.8333 26.5,47.5C 25.5084,47.3284 24.8417,47.6618 24.5,48.5C 22.7839,48.3713 21.1172,48.038 19.5,47.5C 19.1583,46.6618 18.4916,46.3284 17.5,46.5C 17.5,45.8333 17.1667,45.5 16.5,45.5C 16.5,44.8333 16.1667,44.5 15.5,44.5C 15.5,43.8333 15.1667,43.5 14.5,43.5C 14.5,42.8333 14.1667,42.5 13.5,42.5C 13.5,41.8333 13.1667,41.5 12.5,41.5C 12.5,40.8333 12.1667,40.5 11.5,40.5C 11.0679,39.2905 10.4013,38.2905 9.5,37.5C 9.67158,36.5084 9.33825,35.8417 8.5,35.5C 8.67158,34.5084 8.33825,33.8417 7.5,33.5C 7.76781,31.901 7.43448,30.5676 6.5,29.5C 6.5,26.8333 6.5,24.1667 6.5,21.5C 7.16667,21.5 7.5,21.1667 7.5,20.5C 8.16667,20.5 8.5,20.1667 8.5,19.5C 9.49162,19.6716 10.1583,19.3382 10.5,18.5C 11.7095,18.0679 12.7095,17.4013 13.5,16.5C 14.4916,16.6716 15.1583,16.3382 15.5,15.5C 16.4916,15.6716 17.1583,15.3382 17.5,14.5C 19.588,13.0605 21.9214,12.3939 24.5,12.5 Z M 21.5,14.5 C 18.2266,17.1442 14.5599,19.3109 10.5,21C 8.00126,32.1863 12.0013,40.6863 22.5,46.5C 32.5222,41.2789 37.1889,33.1122 36.5,22C 31.7146,18.9406 26.7146,16.4406 21.5,14.5 Z M 27.5,31.5 C 27.0941,33.1092 27.0941,34.4425 27.5,35.5C 28.782,34.0416 28.782,32.7082 27.5,31.5 Z M 16.5,31.5 C 16.238,32.9778 16.5713,34.3112 17.5,35.5C 17.8333,35.3333 18.1667,35.1667 18.5,35C 17.9152,33.6976 17.2485,32.531 16.5,31.5 Z M 21.5,22.5 C 19.6122,25.9312 19.1122,29.5979 20,33.5C 24.1367,35.4937 25.97,34.1604 25.5,29.5C 25.919,25.9877 24.5856,23.6544 21.5,22.5 Z"/></g>
<g><path style="opacity:0.984" fill="#faa64a" d="M 20.5,36.5 C 21.8333,36.5 23.1667,36.5 24.5,36.5C 24.5,37.5 24.5,38.5 24.5,39.5C 23.1667,39.5 21.8333,39.5 20.5,39.5C 20.5,38.5 20.5,37.5 20.5,36.5 Z"/></g>
<g><path style="opacity:0.709" fill="#00b27d" d="M 24.5,36.5 C 23.1667,36.5 21.8333,36.5 20.5,36.5C 16.7812,39.4796 14.7812,38.4796 14.5,33.5C 19.8333,14.8333 25.1667,14.8333 30.5,33.5C 30.2188,38.4796 28.2188,39.4796 24.5,36.5 Z M 27.5,31.5 C 27.0941,33.1092 27.0941,34.4425 27.5,35.5C 28.782,34.0416 28.782,32.7082 27.5,31.5 Z M 16.5,31.5 C 16.238,32.9778 16.5713,34.3112 17.5,35.5C 17.8333,35.3333 18.1667,35.1667 18.5,35C 17.9152,33.6976 17.2485,32.531 16.5,31.5 Z M 21.5,22.5 C 19.6122,25.9312 19.1122,29.5979 20,33.5C 24.1367,35.4937 25.97,34.1604 25.5,29.5C 25.919,25.9877 24.5856,23.6544 21.5,22.5 Z"/></g>
<g><path style="opacity:0.906" fill="#faa84b" d="M 21.5,25.5 C 23.4646,25.9483 23.7979,26.9483 22.5,28.5C 21.6143,27.675 21.281,26.675 21.5,25.5 Z"/></g>
</svg>
